<svg width="25" height="20" viewBox="0 0 25 20" fill="none" xmlns="http://www.w3.org/2000/svg">
<path d="M15.4412 16.4706C15.4412 18.4118 13.853 20 11.9118 20C9.97065 20 8.38241 18.4118 8.38241 16.4706H10.7354C10.7354 17.1176 11.2648 17.6471 11.9118 17.6471C12.5589 17.6471 13.0883 17.1176 13.0883 16.4706C13.0883 15.8235 12.5589 15.2941 11.9118 15.2941H0.735352V12.9412H11.9118C13.853 12.9412 15.4412 14.5294 15.4412 16.4706ZM20.7354 4.11765C20.7354 1.84706 18.8883 0 16.6177 0C14.3471 0 12.5001 1.84706 12.5001 4.11765H14.853C14.853 3.14118 15.6412 2.35294 16.6177 2.35294C17.5942 2.35294 18.3824 3.14118 18.3824 4.11765C18.3824 5.09412 17.5942 5.88235 16.6177 5.88235H0.735352V8.23529H16.6177C18.8883 8.23529 20.7354 6.38824 20.7354 4.11765ZM20.1471 9.41177H0.735352V11.7647H20.1471C21.1236 11.7647 21.9118 12.5529 21.9118 13.5294C21.9118 14.5059 21.1236 15.2941 20.1471 15.2941V17.6471C22.4177 17.6471 24.2648 15.8 24.2648 13.5294C24.2648 11.2588 22.4177 9.41177 20.1471 9.41177Z" fill="white"/>
</svg>
