<svg width="37" height="19" viewBox="0 0 37 19" fill="none" xmlns="http://www.w3.org/2000/svg">
<path d="M6.40902 9.90909C8.57266 9.90909 8.99084 11.7273 12.4636 11.7273C16.009 11.7273 16.2636 9.90909 18.5181 9.90909C20.6818 9.90909 21.0999 11.7273 24.5727 11.7273C28.1181 11.7273 28.3727 9.90909 30.6272 9.90909C32.7908 9.90909 33.1727 11.6909 36.6454 11.7273V9.59091C34.4817 9.59091 34.0636 7.77273 30.5908 7.77273C27.0454 7.77273 26.7908 9.59091 24.5363 9.59091C22.3727 9.59091 21.9545 7.77273 18.4818 7.77273C14.9363 7.77273 14.6818 9.59091 12.4272 9.59091C10.2636 9.59091 9.84539 7.77273 6.37266 7.77273C2.82721 7.77273 2.57266 9.59091 0.318115 9.59091V11.7273C3.77266 11.7273 4.26357 9.90909 6.40902 9.90909ZM30.6272 15.0455C27.0818 15.0455 26.8272 16.8636 24.5727 16.8636C22.409 16.8636 21.9908 15.0455 18.5181 15.0455C14.9727 15.0455 14.6999 16.8636 12.4454 16.8636C10.1908 16.8636 9.9363 15.0455 6.39084 15.0455C2.84539 15.0455 2.57266 16.8636 0.318115 16.8636V19C3.86357 19 4.15448 17.1818 6.39084 17.1818C8.64539 17.1818 8.89993 19 12.4454 19C15.9908 19 16.2636 17.1818 18.5181 17.1818C20.6818 17.1818 21.0999 19 24.5727 19C28.0999 19 28.3727 17.1818 30.6272 17.1818C32.7908 17.1818 33.209 19 36.6818 19V16.8636C34.4272 16.8636 34.1727 15.0455 30.6272 15.0455ZM6.40902 2.63636C8.57266 2.63636 8.99084 4.45455 12.4636 4.45455C16.009 4.45455 16.2636 2.63636 18.5181 2.63636C20.6818 2.63636 21.0999 4.45455 24.5727 4.45455C28.1181 4.45455 28.3727 2.63636 30.6272 2.63636C32.7908 2.63636 33.1727 4.41818 36.6454 4.45455V2.31818C34.4817 2.31818 34.0636 0.5 30.5908 0.5C27.0454 0.5 26.7908 2.31818 24.5363 2.31818C22.3727 2.31818 21.9545 0.5 18.4818 0.5C14.9363 0.5 14.6818 2.31818 12.4272 2.31818C10.2636 2.31818 9.84539 0.5 6.37266 0.5C2.82721 0.5 2.57266 2.31818 0.318115 2.31818V4.45455C3.77266 4.45455 4.26357 2.63636 6.40902 2.63636Z" fill="#269DD9"/>
</svg>
