<svg width="33" height="20" viewBox="0 0 33 20" fill="none" xmlns="http://www.w3.org/2000/svg">
<path d="M6.45513 9.85752C6.09893 10.0475 5.7368 10.0772 5.36872 9.94657C5.00065 9.81596 4.72163 9.57256 4.53165 9.21636L0.969647 2.09235C0.779673 1.73615 0.74999 1.37401 0.880597 1.00594C1.0112 0.637863 1.25461 0.358839 1.61081 0.168865C1.96701 -0.0211082 2.32915 -0.0507916 2.69722 0.0798153C3.06529 0.210422 3.34432 0.453826 3.53429 0.810026L7.0963 7.93404C7.28627 8.29024 7.31595 8.65237 7.18535 9.02045C7.05474 9.38852 6.81134 9.66755 6.45513 9.85752ZM11.4419 19.8311C11.0857 20.0211 10.7236 20.0508 10.3555 19.9202C9.98746 19.7896 9.70843 19.5462 9.51846 19.19L6.66885 13.4908C6.47888 13.1346 6.4492 12.7724 6.5798 12.4044C6.71041 12.0363 6.95382 11.7573 7.31002 11.5673C7.66622 11.3773 8.02835 11.3476 8.39643 11.4782C8.7645 11.6088 9.04353 11.8522 9.2335 12.2084L12.0831 17.9077C12.2731 18.2639 12.3028 18.626 12.1722 18.9941C12.0415 19.3621 11.7981 19.6412 11.4419 19.8311ZM14.3628 12.7071C14.0066 12.8971 13.6444 12.9268 13.2764 12.7962C12.9083 12.6656 12.6293 12.4222 12.4393 12.066L7.4525 2.09235C7.26252 1.73615 7.23284 1.37401 7.36345 1.00594C7.49405 0.637863 7.73746 0.358839 8.09366 0.168865C8.44986 -0.0211082 8.81199 -0.0507916 9.18007 0.0798153C9.54814 0.210422 9.82717 0.453826 10.0171 0.810026L15.0039 10.7836C15.1939 11.1398 15.2236 11.502 15.093 11.8701C14.9624 12.2381 14.719 12.5172 14.3628 12.7071ZM17.4261 5.58311C17.0699 5.77309 16.7078 5.80277 16.3397 5.67216C15.9716 5.54156 15.6926 5.29815 15.5026 4.94195L14.1134 2.09235C13.9235 1.73615 13.8938 1.37401 14.0244 1.00594C14.155 0.637863 14.3984 0.358839 14.7546 0.168865C15.1108 -0.0211082 15.467 -0.0507916 15.8232 0.0798153C16.1794 0.210422 16.4525 0.453826 16.6425 0.810026L18.0673 3.65963C18.2572 4.01583 18.2869 4.37797 18.1563 4.74604C18.0257 5.11412 17.7823 5.39314 17.4261 5.58311ZM18.281 19.7955C17.9248 19.9855 17.5627 20.0211 17.1946 19.9024C16.8265 19.7836 16.5475 19.5462 16.3575 19.19L14.9327 16.3404C14.7427 15.9842 14.7131 15.622 14.8437 15.254C14.9743 14.8859 15.2177 14.6069 15.5739 14.4169C15.9301 14.2269 16.2922 14.1972 16.6603 14.3278C17.0284 14.4584 17.3074 14.7018 17.4974 15.058L18.9222 17.9077C19.1121 18.2639 19.1418 18.6201 19.0112 18.9763C18.8806 19.3325 18.6372 19.6055 18.281 19.7955ZM24.9063 19.7955C24.5501 19.9855 24.188 20.0211 23.8199 19.9024C23.4518 19.7836 23.1728 19.5462 22.9828 19.19L17.996 9.21636C17.8061 8.86016 17.7764 8.49802 17.907 8.12995C18.0376 7.76187 18.281 7.48285 18.6372 7.29288C18.9934 7.1029 19.3555 7.07322 19.7236 7.20383C20.0917 7.33443 20.3707 7.57784 20.5607 7.93404L25.5475 17.9077C25.7375 18.2639 25.7671 18.6201 25.6365 18.9763C25.5059 19.3325 25.2625 19.6055 24.9063 19.7955ZM27.1148 11.2823C26.7586 11.4723 26.3964 11.502 26.0284 11.3714C25.6603 11.2408 25.3813 10.9974 25.1913 10.6412L20.9169 2.09235C20.7269 1.73615 20.6972 1.37401 20.8278 1.00594C20.9584 0.637863 21.2018 0.358839 21.558 0.168865C21.9142 -0.0211082 22.2764 -0.0507916 22.6444 0.0798153C23.0125 0.210422 23.2915 0.453826 23.4815 0.810026L27.7559 9.35884C27.9459 9.71504 27.9756 10.0772 27.845 10.4453C27.7144 10.8133 27.471 11.0923 27.1148 11.2823ZM31.3892 19.8311C31.033 20.0211 30.6708 20.0508 30.3028 19.9202C29.9347 19.7896 29.6557 19.5462 29.4657 19.19L27.3285 14.9156C27.1385 14.5594 27.1088 14.1972 27.2394 13.8292C27.37 13.4611 27.6134 13.1821 27.9696 12.9921C28.3258 12.8021 28.688 12.7724 29.0561 12.903C29.4241 13.0336 29.7032 13.277 29.8931 13.6332L32.0303 17.9077C32.2203 18.2639 32.25 18.626 32.1194 18.9941C31.9888 19.3621 31.7454 19.6412 31.3892 19.8311Z" fill="#5281E0"/>
</svg>
